<?xml version="1.0" encoding="UTF-8" standalone="no"?>
<!-- Created with Inkscape (http://www.inkscape.org/) -->

<svg
   width="100mm"
   height="100mm"
   viewBox="0 0 100 100"
   version="1.1"
   id="svg43318"
   inkscape:version="1.1.2 (b8e25be833, 2022-02-05)"
   xmlns:inkscape="http://www.inkscape.org/namespaces/inkscape"
   xmlns:sodipodi="http://sodipodi.sourceforge.net/DTD/sodipodi-0.dtd"
   xmlns="http://www.w3.org/2000/svg"
   xmlns:svg="http://www.w3.org/2000/svg">
  <sodipodi:namedview
     id="namedview43320"
     pagecolor="#505050"
     bordercolor="#eeeeee"
     borderopacity="1"
     inkscape:pageshadow="0"
     inkscape:pageopacity="0"
     inkscape:pagecheckerboard="0"
     inkscape:document-units="mm"
     showgrid="false"
     inkscape:zoom="0.62448793"
     inkscape:cx="240.99745"
     inkscape:cy="232.99089"
     inkscape:window-width="1500"
     inkscape:window-height="930"
     inkscape:window-x="-6"
     inkscape:window-y="-6"
     inkscape:window-maximized="1"
     inkscape:current-layer="layer1" />
  <defs
     id="defs43315" />
  <g
     inkscape:label="Livello 1"
     inkscape:groupmode="layer"
     id="layer1"
     transform="translate(-80.493581,22.46077)">
    <rect
       style="fill:#2f60b4;fill-opacity:1;stroke:none;stroke-width:7.49292;stroke-miterlimit:10"
       id="rect890"
       width="100"
       height="100"
       x="80.493584"
       y="-22.46077"
       rx="61.799999" />
    <path
       id="rect1104-7-4"
       style="fill:#000000;fill-opacity:0.4;stroke:none;stroke-width:19.6138;stroke-miterlimit:10"
       d="M 255.16211 311.77344 C 244.69282 311.77344 236.26562 320.20258 236.26562 330.67188 C 236.26562 341.14117 244.69282 349.56836 255.16211 349.56836 L 288.87891 349.56836 C 305.40901 339.29332 320.22032 326.53898 332.79883 311.81055 C 332.41975 311.78808 332.03921 311.77344 331.6543 311.77344 L 255.16211 311.77344 z "
       transform="matrix(0.26458333,0,0,0.26458333,80.493581,-22.46077)" />
    <rect
       style="fill:#000000;fill-opacity:0.4;stroke:none;stroke-width:3.65908;stroke-miterlimit:10"
       id="rect1104-7-7"
       width="15.033147"
       height="10"
       x="158.21042"
       y="44.988579"
       rx="5"
       ry="5" />
    <rect
       style="fill:#000000;fill-opacity:0.4;stroke:none;stroke-width:6.03293;stroke-miterlimit:10"
       id="rect1104-7-6"
       width="40.866211"
       height="10"
       x="132.37737"
       y="29.736092"
       ry="5"
       rx="5" />
    <path
       id="rect1104"
       style="fill:#e1b871;fill-opacity:1;stroke:none;stroke-width:25.3076;stroke-miterlimit:10"
       d="M 90.019531 27.794922 C 73.395177 37.992683 58.482476 50.687622 45.804688 65.373047 C 46.74565 65.516128 47.711199 65.589844 48.693359 65.589844 L 201.16797 65.589844 C 211.63726 65.589844 220.06641 57.162651 220.06641 46.693359 C 220.06641 36.224068 211.63726 27.794922 201.16797 27.794922 L 90.019531 27.794922 z "
       transform="matrix(0.26458333,0,0,0.26458333,80.493581,-22.46077)" />
    <path
       id="rect1104-7"
       style="fill:#000000;fill-opacity:0.4;stroke:none;stroke-width:20.3668;stroke-miterlimit:10"
       d="M 246.21875 27.541016 C 235.74946 27.541016 227.32227 35.968209 227.32227 46.4375 C 227.32227 56.906791 235.74946 65.335938 246.21875 65.335938 L 331.6543 65.335938 C 331.80641 65.335938 331.95619 65.327757 332.10742 65.324219 C 319.33441 50.538583 304.2965 37.769957 287.52539 27.541016 L 246.21875 27.541016 z "
       transform="matrix(0.26458333,0,0,0.26458333,80.493581,-22.46077)" />
    <rect
       style="fill:#000000;fill-opacity:0.4;stroke:none;stroke-width:3.69077;stroke-miterlimit:10"
       id="rect1104-7-2"
       width="15.294662"
       height="10"
       x="157.94891"
       y="14.893394"
       rx="5"
       ry="5" />
    <rect
       style="fill:#dd6068;fill-opacity:1;stroke:none;stroke-width:8.44094;stroke-miterlimit:10"
       id="rect1104-9"
       width="80"
       height="10"
       x="88.37693"
       y="-0.10660616"
       rx="5"
       ry="5" />
    <rect
       style="fill:#a1a9b6;fill-opacity:1;stroke:none;stroke-width:7.70476;stroke-miterlimit:10"
       id="rect1104-5"
       width="66.654068"
       height="10"
       x="88.37693"
       y="14.893394"
       rx="5"
       ry="5" />
    <rect
       style="fill:#e9afaf;fill-opacity:1;stroke:none;stroke-width:6.04437;stroke-miterlimit:10"
       id="rect1104-3"
       width="41.021397"
       height="10"
       x="88.37693"
       y="29.893394"
       ry="5"
       rx="5" />
    <rect
       style="fill:#e6e6e6;fill-opacity:1;stroke:none;stroke-width:7.68023;stroke-miterlimit:10"
       id="rect1104-3-4"
       width="66.230385"
       height="10"
       x="88.37693"
       y="44.893394"
       ry="5"
       rx="5" />
    <path
       id="rect1104-3-4-0"
       style="fill:#ed9f56;fill-opacity:1;stroke:none;stroke-width:25.5724;stroke-miterlimit:10"
       d="M 48.693359 311.25977 C 47.426552 311.25977 46.189866 311.3856 44.994141 311.62109 C 57.398323 326.18407 71.980836 338.82521 88.25 349.05469 L 205.17188 349.05469 C 215.64117 349.05469 224.06836 340.62749 224.06836 330.1582 C 224.06836 319.68891 215.64117 311.25977 205.17188 311.25977 L 48.693359 311.25977 z "
       transform="matrix(0.26458333,0,0,0.26458333,80.493581,-22.46077)" />
    <path
       id="rect1104-7-0"
       style="fill:#000000;fill-opacity:0.4;stroke:none;stroke-width:6.06765;stroke-miterlimit:10"
       d="M 339.34961 84.386719 L 339.34961 122.18164 L 350.28711 122.18164 L 350.28711 90.226562 C 349.08092 88.254512 347.83428 86.309785 346.55859 84.386719 L 339.34961 84.386719 z "
       transform="matrix(0.26458333,0,0,0.26458333,80.493581,-22.46077)" />
  </g>
</svg>
