<?xml version="1.0" encoding="UTF-8" standalone="no"?>
<!-- Created with Inkscape (http://www.inkscape.org/) -->

<svg
   width="114.47217mm"
   height="104.11012mm"
   viewBox="0 0 114.47217 104.11012"
   version="1.1"
   id="svg5"
   inkscape:version="1.1.2 (b8e25be833, 2022-02-05)"
   sodipodi:docname="logo.svg"
   xmlns:inkscape="http://www.inkscape.org/namespaces/inkscape"
   xmlns:sodipodi="http://sodipodi.sourceforge.net/DTD/sodipodi-0.dtd"
   xmlns="http://www.w3.org/2000/svg"
   xmlns:svg="http://www.w3.org/2000/svg">
  <sodipodi:namedview
     id="namedview7"
     pagecolor="#505050"
     bordercolor="#eeeeee"
     borderopacity="1"
     inkscape:pageshadow="0"
     inkscape:pageopacity="0"
     inkscape:pagecheckerboard="0"
     inkscape:document-units="mm"
     showgrid="false"
     inkscape:zoom="0.88315931"
     inkscape:cx="375.35697"
     inkscape:cy="244.01034"
     inkscape:window-width="1500"
     inkscape:window-height="930"
     inkscape:window-x="-6"
     inkscape:window-y="-6"
     inkscape:window-maximized="1"
     inkscape:current-layer="layer1" />
  <defs
     id="defs2" />
  <g
     inkscape:label="Livello 1"
     inkscape:groupmode="layer"
     id="layer1"
     transform="translate(-52.944942,-96.444942)">
    <circle
       style="fill:#2f60b4;fill-opacity:1;stroke-width:10.5463;stroke-miterlimit:10"
       id="path1498"
       cx="105"
       cy="148.5"
       r="52.055058"
       inkscape:export-filename="C:\Users\marco\Desktop\icon.png"
       inkscape:export-xdpi="330.896"
       inkscape:export-ydpi="330.896" />
    <path
       style="fill:#1c3870;stroke:none;stroke-width:0.264583;fill-opacity:1"
       d="m 103.64668,99.809953 c -2.81201,0.403757 -5.267872,1.329957 -7.672942,2.821807 -15.829012,9.81858 -5.82612,34.71931 12.170882,32.14121 2.56832,-0.36803 4.97126,-1.23957 7.1427,-2.6662 14.81986,-9.73667 6.5151,-34.903608 -11.64064,-32.296817 M 82.215408,176.69041 c 1.77932,2.47359 0.79375,7.60915 0.79375,10.58333 0,1.07474 -0.40672,3.24274 0.42423,4.07379 1.3625,1.36234 6.96452,0.42413 8.83619,0.42413 h 25.135462 7.14376 c 0.83343,-2.6e-4 2.0992,0.195 2.63842,-0.6133 0.62416,-0.93504 0.272,-2.80909 0.272,-3.88462 0,-3.175 -0.0151,-6.35026 2.7e-4,-9.525 0.0368,-7.64646 1.81399,-16.77458 6.42541,-23.01874 3.01969,-4.08864 7.72795,-6.63129 11.7856,-9.56181 5.49011,-3.96505 10.69711,-8.29416 15.3805,-13.19239 2.81067,-2.93952 7.73827,-7.92401 6.00577,-12.43542 -1.33164,-3.46715 -5.46179,-4.70931 -8.64129,-3.05106 -2.9001,1.51257 -5.24748,4.42028 -7.69673,6.5597 -4.631,4.04548 -9.44403,8.00762 -14.79285,11.08313 -3.25173,1.86955 -6.90695,3.66845 -10.58335,4.50692 -2.29791,0.52414 -6.29894,0.58393 -8.17828,1.97617 -2.90962,2.15556 -4.91252,6.48017 -7.05273,9.37604 -0.67601,0.9144 -1.55046,2.87207 -2.66833,3.28059 -1.16603,0.42624 -2.75592,-2.05688 -3.37955,-2.77524 -1.79997,-2.07274 -3.75419,-4.01161 -5.556272,-6.08541 -0.78845,-0.90726 -1.75127,-2.23256 -3.06281,-2.29606 -7.02152,-0.33999 -15.586925,5.05513 -19.499742,10.49815 -5.798027,8.06531 -9.11151,19.49161 -11.14007,29.10418 -0.4953,2.34712 -2.702084,6.90087 -1.963764,9.22126 0.502867,1.58036 5.587471,0.83291 6.938989,0.83291 1.635495,0 4.859787,0.61542 6.276499,-0.27199 1.206182,-0.75539 1.352761,-2.99085 1.755722,-4.22593 1.197769,-3.67109 2.995926,-7.01198 4.403196,-10.58333"
       id="path1072"
       sodipodi:nodetypes="ccccccscscccsccscccccccccccccssscsc"
       inkscape:export-filename="C:\Users\marco\Desktop\icon.png"
       inkscape:export-xdpi="330.896"
       inkscape:export-ydpi="330.896" />
  </g>
</svg>
